<?xml version="1.0" encoding="UTF-8" standalone="no"?>
<svg width="600px" height="370px" viewBox="0 0 600 370" version="1.1" xmlns="http://www.w3.org/2000/svg" xmlns:xlink="http://www.w3.org/1999/xlink" xmlns:sketch="http://www.bohemiancoding.com/sketch/ns">
    <!-- Generator: Sketch 3.0.3 (7891) - http://www.bohemiancoding.com/sketch -->
    <title>Blueprint Illustration</title>
    <desc>Created with Sketch.</desc>
    <defs>
        <linearGradient x1="50%" y1="0%" x2="50%" y2="100%" id="linearGradient-1">
            <stop stop-color="#FFFFFF" offset="0%"></stop>
            <stop stop-color="#FFFFFF" stop-opacity="0" offset="100%"></stop>
        </linearGradient>
    </defs>
    <g id="Page-1" stroke="none" stroke-width="1" fill="none" fill-rule="evenodd" sketch:type="MSPage">
        <g id="Blueprint-Illustration" sketch:type="MSLayerGroup">
            <rect id="Rectangle-59" stroke="url(#linearGradient-1)" sketch:type="MSShapeGroup" x="0" y="0" width="600" height="370" rx="8"></rect>
            <rect id="Rectangle-125" stroke="url(#linearGradient-1)" stroke-linecap="square" opacity="0.2" sketch:type="MSShapeGroup" x="10" y="40" width="580" height="320" rx="3"></rect>
            <text id="#-Create-a-new-layer" opacity="0.4" sketch:type="MSTextLayer" font-family="Menlo" font-size="9" font-weight="normal" line-spacing="12" letter-spacing="0.5" fill="#FFFFFF">
                <tspan x="28" y="65"># Create a new layer</tspan>
                <tspan x="28" y="77"></tspan>
                <tspan x="28" y="89"></tspan>
                <tspan x="28" y="101"></tspan>
                <tspan x="28" y="113"></tspan>
                <tspan x="28" y="125"></tspan>
                <tspan x="28" y="137"></tspan>
                <tspan x="28" y="149"></tspan>
                <tspan x="28" y="161"></tspan>
                <tspan x="28" y="173"></tspan>
                <tspan x="28" y="185"># Make the layer draggable</tspan>
                <tspan x="28" y="197"></tspan>
                <tspan x="28" y="209"></tspan>
                <tspan x="28" y="221"># Add an animation</tspan>
            </text>
            <text id="layer-=-new-Layer-wi" opacity="0.9" sketch:type="MSTextLayer" font-family="Menlo" font-size="9" font-weight="normal" line-spacing="12" letter-spacing="0.5" fill="#FFFFFF">
                <tspan x="28" y="78">layer = new Layer width:128, height:128</tspan>
                <tspan x="28" y="90">layer.center()</tspan>
                <tspan x="28" y="102"></tspan>
                <tspan x="28" y="114">originX = layer.x</tspan>
                <tspan x="28" y="126">originY = layer.y</tspan>
                <tspan x="28" y="138"></tspan>
                <tspan x="28" y="150">layer.style =</tspan>
                <tspan x="28" y="162">  borderRadius: '50%',</tspan>
                <tspan x="28" y="174"></tspan>
                <tspan x="28" y="186"></tspan>
                <tspan x="28" y="198">layer.draggable.enabled = true</tspan>
                <tspan x="28" y="210"></tspan>
                <tspan x="28" y="222"></tspan>
                <tspan x="28" y="234">layer.on Events.DragEnd</tspan>
                <tspan x="28" y="246"></tspan>
                <tspan x="28" y="258">  animation = layer.animate</tspan>
                <tspan x="28" y="270">    properties:</tspan>
                <tspan x="28" y="282">      x: originX</tspan>
                <tspan x="28" y="294">      y: originY</tspan>
            </text>
            <g id="Rectangle-142-+-Rectangle-144-+-Oval-32" transform="translate(409.000000, 62.000000)" stroke="#FFFFFF" sketch:type="MSShapeGroup" stroke-linecap="square">
                <rect id="Rectangle-142" x="0" y="0" width="120" height="250" rx="15"></rect>
                <rect id="Rectangle-144" opacity="0.2" x="7" y="25" width="106" height="190"></rect>
                <circle id="Oval-32" cx="60" cy="232" r="10"></circle>
            </g>
            <rect id="Rectangle-250" opacity="0.2" fill="url(#linearGradient-1)" sketch:type="MSShapeGroup" x="300" y="41" width="1" height="308"></rect>
            <path d="M541,14 L547,20 L547,14 L541,14 Z M533,22 L539,28 L533,28 L533,22 Z" id="Rectangle-25" fill="#FFFFFF" sketch:type="MSShapeGroup"></path>
            <path d="M576,16 L571.00853,16 C569.89925,16 569,16.9019504 569,18.0085302 L569,25.9914698 C569,27.1007504 569.90195,28 571.00853,28 L578.99147,28 C580.10075,28 581,27.0980496 581,25.9914698 L581,19.5042651 L581,19.5042651 L581,21 L579,22.6 L579,25.0029699 C579,25.5469637 578.553614,26 578.00297,26 L571.99703,26 C571.453036,26 571,25.5536144 571,25.0029699 L571,18.9970301 C571,18.4530363 571.446386,18 571.99703,18 L576,18 L576,17 L576,21 L581,17 L576,13 L576,16 Z" id="Rectangle-124" fill="#FFFFFF" sketch:type="MSShapeGroup"></path>
            <path d="M21.5,14 L16.5,20 L21.5,26 L23,24.5 L19,20 L23,15.5 L21.5,14 Z M29,15.5 L33,20 L29,24.5 L30.5,26 L35.5,20 L30.5,14 L29,15.5 Z M23,19 L23,21 L25,21 L25,19 L23,19 Z M27,19 L27,21 L29,21 L29,19 L27,19 Z" id="Rectangle-165" fill="#FCFCFC" sketch:type="MSShapeGroup"></path>
            <path d="M64.1716035,17.2426101 C64.5191928,17.7674156 64.7703987,18.3616253 64.8999819,19 L66.492516,19 C67.0510798,19 67.5,19.4477153 67.5,20 C67.5,20.5561352 67.0489341,21 66.492516,21 L64.8999819,21 L64.8999819,21 C64.7703987,21.6383747 64.5191928,22.2325844 64.1716035,22.7573899 L64.1716035,22.7573899 L65.251868,23.8376544 C65.6428626,24.2286491 65.6405243,24.8594757 65.25,25.25 C64.856753,25.643247 64.2271471,25.6413606 63.8376544,25.251868 L62.7573899,24.1716035 C62.2325844,24.5191928 61.6383747,24.7703987 61,24.8999819 L61,24.8999819 L61,26.492516 C61,27.0510798 60.5522847,27.5 60,27.5 C59.4438648,27.5 59,27.0489341 59,26.492516 L59,24.8999819 C58.3616253,24.7703987 57.7674156,24.5191927 57.2426101,24.1716034 L56.1623455,25.2518679 C55.7713509,25.6428626 55.1405243,25.6405243 54.75,25.25 C54.356753,24.856753 54.3586393,24.227147 54.748132,23.8376544 L55.8283965,22.7573899 C55.4808072,22.2325844 55.2296013,21.6383746 55.1000181,21 L53.507484,21 C52.9489202,21 52.5,20.5522847 52.5,20 C52.5,19.4438648 52.9510659,19 53.507484,19 L55.1000181,19 C55.2296013,18.3616253 55.4808072,17.7674156 55.8283965,17.2426101 L54.7481318,16.1623453 C54.3571371,15.7713507 54.3594754,15.140524 54.7499997,14.7499997 C55.1432467,14.3567528 55.7728527,14.3586391 56.1623453,14.7481318 L57.2426101,15.8283965 C57.7674156,15.4808072 58.3616253,15.2296013 59,15.1000181 L59,13.507484 C59,12.9489202 59.4477153,12.5 60,12.5 C60.5561352,12.5 61,12.9510659 61,13.507484 L61,15.1000181 C61.6383747,15.2296013 62.2325844,15.4808072 62.7573899,15.8283965 L63.8376547,14.7481317 C64.2286493,14.3571371 64.859476,14.3594754 65.2500003,14.7499997 C65.6432472,15.1432467 65.6413609,15.7728527 65.2518682,16.1623453 L64.1716035,17.2426101 L64.1716035,17.2426101 Z M60,23.5 C62,23.5 63.5,22 63.5,20 C63.5,18 62,16.5 60,16.5 C58,16.5 56.5,18 56.5,20 C56.5,22 58,23.5 60,23.5 Z" id="Oval-16" fill="#FCFCFC" sketch:type="MSShapeGroup"></path>
        </g>
    </g>
</svg>